<mxfile host="app.diagrams.net" modified="2023-12-29T03:09:48.895Z" agent="Mozilla/5.0 (Windows NT 10.0; Win64; x64) AppleWebKit/537.36 (KHTML, like Gecko) Chrome/120.0.0.0 Safari/537.36" etag="hR3JUUfn7bsGIBx_5tB5" version="22.1.15" type="github">
  <diagram name="페이지-1" id="oKhGzSopXlj4xhYNLFR4">
    <mxGraphModel dx="1434" dy="1949" grid="1" gridSize="10" guides="1" tooltips="1" connect="1" arrows="1" fold="1" page="1" pageScale="1" pageWidth="827" pageHeight="1169" math="0" shadow="0">
      <root>
        <mxCell id="0" />
        <mxCell id="1" parent="0" />
        <mxCell id="JkcfyAt9VdftGswo8Ur1-15" value="비회원&lt;br&gt;" style="shape=umlActor;verticalLabelPosition=bottom;verticalAlign=top;html=1;outlineConnect=0;" vertex="1" parent="1">
          <mxGeometry x="60" y="170" width="30" height="70" as="geometry" />
        </mxCell>
        <mxCell id="JkcfyAt9VdftGswo8Ur1-16" value="회원" style="shape=umlActor;verticalLabelPosition=bottom;verticalAlign=top;html=1;outlineConnect=0;" vertex="1" parent="1">
          <mxGeometry x="60" y="410" width="30" height="70" as="geometry" />
        </mxCell>
        <mxCell id="JkcfyAt9VdftGswo8Ur1-17" value="관리자" style="shape=umlActor;verticalLabelPosition=bottom;verticalAlign=top;html=1;outlineConnect=0;" vertex="1" parent="1">
          <mxGeometry x="809" y="275" width="30" height="80" as="geometry" />
        </mxCell>
        <mxCell id="JkcfyAt9VdftGswo8Ur1-25" value="코리아 IT&lt;br&gt;SYSTEM" style="shape=umlFrame;whiteSpace=wrap;html=1;pointerEvents=0;width=60;height=30;" vertex="1" parent="1">
          <mxGeometry x="130" y="-260" width="610" height="900" as="geometry" />
        </mxCell>
        <mxCell id="JkcfyAt9VdftGswo8Ur1-27" value="회원가입&lt;br&gt;(C)" style="ellipse;whiteSpace=wrap;html=1;" vertex="1" parent="1">
          <mxGeometry x="180" y="137" width="70" height="55" as="geometry" />
        </mxCell>
        <mxCell id="JkcfyAt9VdftGswo8Ur1-28" value="회원수정&lt;br&gt;(U)" style="ellipse;whiteSpace=wrap;html=1;" vertex="1" parent="1">
          <mxGeometry x="180" y="380" width="70" height="45" as="geometry" />
        </mxCell>
        <mxCell id="JkcfyAt9VdftGswo8Ur1-29" value="회원탈퇴&lt;br&gt;(D)" style="ellipse;whiteSpace=wrap;html=1;" vertex="1" parent="1">
          <mxGeometry x="180" y="462" width="70" height="45" as="geometry" />
        </mxCell>
        <mxCell id="JkcfyAt9VdftGswo8Ur1-30" value="회원정보&lt;br&gt;조회(R)" style="ellipse;whiteSpace=wrap;html=1;" vertex="1" parent="1">
          <mxGeometry x="180" y="532" width="70" height="50" as="geometry" />
        </mxCell>
        <mxCell id="JkcfyAt9VdftGswo8Ur1-31" value="" style="endArrow=none;html=1;rounded=0;exitX=0.014;exitY=0.4;exitDx=0;exitDy=0;exitPerimeter=0;" edge="1" parent="1" source="JkcfyAt9VdftGswo8Ur1-27">
          <mxGeometry width="50" height="50" relative="1" as="geometry">
            <mxPoint x="176.99" y="204.51999999999998" as="sourcePoint" />
            <mxPoint x="90" y="204.50294146484953" as="targetPoint" />
          </mxGeometry>
        </mxCell>
        <mxCell id="JkcfyAt9VdftGswo8Ur1-33" value="use" style="edgeLabel;html=1;align=center;verticalAlign=middle;resizable=0;points=[];" vertex="1" connectable="0" parent="JkcfyAt9VdftGswo8Ur1-31">
          <mxGeometry x="0.0344" relative="1" as="geometry">
            <mxPoint as="offset" />
          </mxGeometry>
        </mxCell>
        <mxCell id="JkcfyAt9VdftGswo8Ur1-35" value="" style="endArrow=none;html=1;rounded=0;exitX=0;exitY=0.5;exitDx=0;exitDy=0;" edge="1" parent="1" source="JkcfyAt9VdftGswo8Ur1-28" target="JkcfyAt9VdftGswo8Ur1-16">
          <mxGeometry width="50" height="50" relative="1" as="geometry">
            <mxPoint x="186.99" y="214.51999999999998" as="sourcePoint" />
            <mxPoint x="100" y="214.50294146484953" as="targetPoint" />
          </mxGeometry>
        </mxCell>
        <mxCell id="JkcfyAt9VdftGswo8Ur1-36" value="use" style="edgeLabel;html=1;align=center;verticalAlign=middle;resizable=0;points=[];" vertex="1" connectable="0" parent="JkcfyAt9VdftGswo8Ur1-35">
          <mxGeometry x="0.0344" relative="1" as="geometry">
            <mxPoint as="offset" />
          </mxGeometry>
        </mxCell>
        <mxCell id="JkcfyAt9VdftGswo8Ur1-37" value="" style="endArrow=none;html=1;rounded=0;exitX=0;exitY=0;exitDx=0;exitDy=0;entryX=1;entryY=0.3333333333333333;entryDx=0;entryDy=0;entryPerimeter=0;" edge="1" parent="1" source="JkcfyAt9VdftGswo8Ur1-29" target="JkcfyAt9VdftGswo8Ur1-16">
          <mxGeometry width="50" height="50" relative="1" as="geometry">
            <mxPoint x="196.99" y="224.51999999999998" as="sourcePoint" />
            <mxPoint x="110" y="224.50294146484953" as="targetPoint" />
          </mxGeometry>
        </mxCell>
        <mxCell id="JkcfyAt9VdftGswo8Ur1-38" value="use" style="edgeLabel;html=1;align=center;verticalAlign=middle;resizable=0;points=[];" vertex="1" connectable="0" parent="JkcfyAt9VdftGswo8Ur1-37">
          <mxGeometry x="0.0344" relative="1" as="geometry">
            <mxPoint as="offset" />
          </mxGeometry>
        </mxCell>
        <mxCell id="JkcfyAt9VdftGswo8Ur1-39" value="" style="endArrow=none;html=1;rounded=0;exitX=0;exitY=0;exitDx=0;exitDy=0;" edge="1" parent="1" source="JkcfyAt9VdftGswo8Ur1-30" target="JkcfyAt9VdftGswo8Ur1-16">
          <mxGeometry width="50" height="50" relative="1" as="geometry">
            <mxPoint x="206.99" y="234.51999999999998" as="sourcePoint" />
            <mxPoint x="120" y="234.50294146484953" as="targetPoint" />
          </mxGeometry>
        </mxCell>
        <mxCell id="JkcfyAt9VdftGswo8Ur1-40" value="use" style="edgeLabel;html=1;align=center;verticalAlign=middle;resizable=0;points=[];" vertex="1" connectable="0" parent="JkcfyAt9VdftGswo8Ur1-39">
          <mxGeometry x="0.0344" relative="1" as="geometry">
            <mxPoint as="offset" />
          </mxGeometry>
        </mxCell>
        <mxCell id="JkcfyAt9VdftGswo8Ur1-41" value="로그인" style="ellipse;whiteSpace=wrap;html=1;" vertex="1" parent="1">
          <mxGeometry x="370" y="378" width="70" height="45" as="geometry" />
        </mxCell>
        <mxCell id="JkcfyAt9VdftGswo8Ur1-43" value="" style="endArrow=open;dashed=1;html=1;rounded=0;entryX=0;entryY=0.5;entryDx=0;entryDy=0;exitX=1;exitY=0.5;exitDx=0;exitDy=0;endFill=0;" edge="1" parent="1" source="JkcfyAt9VdftGswo8Ur1-28" target="JkcfyAt9VdftGswo8Ur1-41">
          <mxGeometry width="50" height="50" relative="1" as="geometry">
            <mxPoint x="390" y="492" as="sourcePoint" />
            <mxPoint x="440" y="442" as="targetPoint" />
          </mxGeometry>
        </mxCell>
        <mxCell id="JkcfyAt9VdftGswo8Ur1-48" value="&amp;lt;&amp;lt;include&amp;gt;&amp;gt;" style="edgeLabel;html=1;align=center;verticalAlign=middle;resizable=0;points=[];" vertex="1" connectable="0" parent="JkcfyAt9VdftGswo8Ur1-43">
          <mxGeometry x="-0.2662" relative="1" as="geometry">
            <mxPoint x="13" y="3" as="offset" />
          </mxGeometry>
        </mxCell>
        <mxCell id="JkcfyAt9VdftGswo8Ur1-44" value="" style="endArrow=open;dashed=1;html=1;rounded=0;entryX=0;entryY=1;entryDx=0;entryDy=0;exitX=1;exitY=0.5;exitDx=0;exitDy=0;endFill=0;" edge="1" parent="1" source="JkcfyAt9VdftGswo8Ur1-29" target="JkcfyAt9VdftGswo8Ur1-41">
          <mxGeometry width="50" height="50" relative="1" as="geometry">
            <mxPoint x="260" y="385" as="sourcePoint" />
            <mxPoint x="380" y="405" as="targetPoint" />
          </mxGeometry>
        </mxCell>
        <mxCell id="JkcfyAt9VdftGswo8Ur1-47" value="&amp;lt;&amp;lt;include&amp;gt;&amp;gt;" style="edgeLabel;html=1;align=center;verticalAlign=middle;resizable=0;points=[];" vertex="1" connectable="0" parent="JkcfyAt9VdftGswo8Ur1-44">
          <mxGeometry x="0.1766" y="1" relative="1" as="geometry">
            <mxPoint x="-11" y="7" as="offset" />
          </mxGeometry>
        </mxCell>
        <mxCell id="JkcfyAt9VdftGswo8Ur1-45" value="" style="endArrow=open;dashed=1;html=1;rounded=0;exitX=1;exitY=0.5;exitDx=0;exitDy=0;endFill=0;" edge="1" parent="1" source="JkcfyAt9VdftGswo8Ur1-30">
          <mxGeometry width="50" height="50" relative="1" as="geometry">
            <mxPoint x="250" y="587" as="sourcePoint" />
            <mxPoint x="400" y="422" as="targetPoint" />
          </mxGeometry>
        </mxCell>
        <mxCell id="JkcfyAt9VdftGswo8Ur1-46" value="&amp;lt;&amp;lt;include&amp;gt;&amp;gt;" style="edgeLabel;html=1;align=center;verticalAlign=middle;resizable=0;points=[];" vertex="1" connectable="0" parent="JkcfyAt9VdftGswo8Ur1-45">
          <mxGeometry x="0.0592" y="-1" relative="1" as="geometry">
            <mxPoint as="offset" />
          </mxGeometry>
        </mxCell>
        <mxCell id="JkcfyAt9VdftGswo8Ur1-49" value="학원소개" style="ellipse;whiteSpace=wrap;html=1;" vertex="1" parent="1">
          <mxGeometry x="180" y="259" width="70" height="55" as="geometry" />
        </mxCell>
        <mxCell id="JkcfyAt9VdftGswo8Ur1-74" style="edgeStyle=orthogonalEdgeStyle;rounded=0;orthogonalLoop=1;jettySize=auto;html=1;exitX=0;exitY=1;exitDx=0;exitDy=0;entryX=1;entryY=0.5;entryDx=0;entryDy=0;endArrow=block;endFill=0;" edge="1" parent="1" source="JkcfyAt9VdftGswo8Ur1-51" target="JkcfyAt9VdftGswo8Ur1-49">
          <mxGeometry relative="1" as="geometry" />
        </mxCell>
        <mxCell id="JkcfyAt9VdftGswo8Ur1-51" value="학원소개" style="ellipse;whiteSpace=wrap;html=1;" vertex="1" parent="1">
          <mxGeometry x="310" y="212" width="50" height="40" as="geometry" />
        </mxCell>
        <mxCell id="JkcfyAt9VdftGswo8Ur1-75" style="edgeStyle=orthogonalEdgeStyle;rounded=0;orthogonalLoop=1;jettySize=auto;html=1;exitX=0;exitY=0.5;exitDx=0;exitDy=0;entryX=1;entryY=0.5;entryDx=0;entryDy=0;endArrow=block;endFill=0;" edge="1" parent="1" source="JkcfyAt9VdftGswo8Ur1-52" target="JkcfyAt9VdftGswo8Ur1-49">
          <mxGeometry relative="1" as="geometry" />
        </mxCell>
        <mxCell id="JkcfyAt9VdftGswo8Ur1-52" value="연혁" style="ellipse;whiteSpace=wrap;html=1;" vertex="1" parent="1">
          <mxGeometry x="310" y="266.5" width="50" height="40" as="geometry" />
        </mxCell>
        <mxCell id="JkcfyAt9VdftGswo8Ur1-73" style="edgeStyle=orthogonalEdgeStyle;rounded=0;orthogonalLoop=1;jettySize=auto;html=1;exitX=0;exitY=0;exitDx=0;exitDy=0;entryX=1;entryY=0.5;entryDx=0;entryDy=0;endArrow=block;endFill=0;" edge="1" parent="1" source="JkcfyAt9VdftGswo8Ur1-53" target="JkcfyAt9VdftGswo8Ur1-49">
          <mxGeometry relative="1" as="geometry">
            <mxPoint x="270" y="282" as="targetPoint" />
          </mxGeometry>
        </mxCell>
        <mxCell id="JkcfyAt9VdftGswo8Ur1-53" value="보도자료" style="ellipse;whiteSpace=wrap;html=1;" vertex="1" parent="1">
          <mxGeometry x="310" y="322" width="50" height="40" as="geometry" />
        </mxCell>
        <mxCell id="JkcfyAt9VdftGswo8Ur1-55" value="" style="endArrow=none;html=1;rounded=0;" edge="1" parent="1" source="JkcfyAt9VdftGswo8Ur1-49">
          <mxGeometry width="50" height="50" relative="1" as="geometry">
            <mxPoint x="191" y="197" as="sourcePoint" />
            <mxPoint x="100" y="214.50294146484953" as="targetPoint" />
          </mxGeometry>
        </mxCell>
        <mxCell id="JkcfyAt9VdftGswo8Ur1-56" value="use" style="edgeLabel;html=1;align=center;verticalAlign=middle;resizable=0;points=[];" vertex="1" connectable="0" parent="JkcfyAt9VdftGswo8Ur1-55">
          <mxGeometry x="0.0344" relative="1" as="geometry">
            <mxPoint as="offset" />
          </mxGeometry>
        </mxCell>
        <mxCell id="JkcfyAt9VdftGswo8Ur1-57" value="" style="endArrow=none;html=1;rounded=0;exitX=0;exitY=1;exitDx=0;exitDy=0;" edge="1" parent="1" source="JkcfyAt9VdftGswo8Ur1-49" target="JkcfyAt9VdftGswo8Ur1-16">
          <mxGeometry width="50" height="50" relative="1" as="geometry">
            <mxPoint x="201" y="207" as="sourcePoint" />
            <mxPoint x="110" y="224.50294146484953" as="targetPoint" />
          </mxGeometry>
        </mxCell>
        <mxCell id="JkcfyAt9VdftGswo8Ur1-58" value="use" style="edgeLabel;html=1;align=center;verticalAlign=middle;resizable=0;points=[];" vertex="1" connectable="0" parent="JkcfyAt9VdftGswo8Ur1-57">
          <mxGeometry x="0.0344" relative="1" as="geometry">
            <mxPoint as="offset" />
          </mxGeometry>
        </mxCell>
        <mxCell id="JkcfyAt9VdftGswo8Ur1-66" value="수강료&lt;br&gt;조회" style="ellipse;whiteSpace=wrap;html=1;" vertex="1" parent="1">
          <mxGeometry x="323" y="162" width="50" height="40" as="geometry" />
        </mxCell>
        <mxCell id="JkcfyAt9VdftGswo8Ur1-70" style="edgeStyle=orthogonalEdgeStyle;rounded=0;orthogonalLoop=1;jettySize=auto;html=1;exitX=0;exitY=1;exitDx=0;exitDy=0;entryX=0.714;entryY=0.236;entryDx=0;entryDy=0;entryPerimeter=0;dashed=1;endArrow=open;endFill=0;" edge="1" parent="1" source="JkcfyAt9VdftGswo8Ur1-66" target="JkcfyAt9VdftGswo8Ur1-49">
          <mxGeometry relative="1" as="geometry" />
        </mxCell>
        <mxCell id="JkcfyAt9VdftGswo8Ur1-71" value="&amp;lt;&amp;lt;extends&amp;gt;&amp;gt;" style="edgeLabel;html=1;align=center;verticalAlign=middle;resizable=0;points=[];" vertex="1" connectable="0" parent="JkcfyAt9VdftGswo8Ur1-70">
          <mxGeometry x="-0.3652" y="1" relative="1" as="geometry">
            <mxPoint x="3" as="offset" />
          </mxGeometry>
        </mxCell>
        <mxCell id="JkcfyAt9VdftGswo8Ur1-76" value="회원관리" style="ellipse;whiteSpace=wrap;html=1;" vertex="1" parent="1">
          <mxGeometry x="580" y="154.5" width="70" height="55" as="geometry" />
        </mxCell>
        <mxCell id="JkcfyAt9VdftGswo8Ur1-77" value="강사정보&lt;br&gt;관리" style="ellipse;whiteSpace=wrap;html=1;" vertex="1" parent="1">
          <mxGeometry x="580" y="292" width="70" height="55" as="geometry" />
        </mxCell>
        <mxCell id="JkcfyAt9VdftGswo8Ur1-78" value="모니터링" style="ellipse;whiteSpace=wrap;html=1;" vertex="1" parent="1">
          <mxGeometry x="580" y="452" width="70" height="55" as="geometry" />
        </mxCell>
        <mxCell id="JkcfyAt9VdftGswo8Ur1-79" value="" style="endArrow=none;html=1;rounded=0;" edge="1" parent="1" source="JkcfyAt9VdftGswo8Ur1-17">
          <mxGeometry width="50" height="50" relative="1" as="geometry">
            <mxPoint x="740" y="294.5" as="sourcePoint" />
            <mxPoint x="649" y="215.00294146484953" as="targetPoint" />
          </mxGeometry>
        </mxCell>
        <mxCell id="JkcfyAt9VdftGswo8Ur1-80" value="use" style="edgeLabel;html=1;align=center;verticalAlign=middle;resizable=0;points=[];" vertex="1" connectable="0" parent="JkcfyAt9VdftGswo8Ur1-79">
          <mxGeometry x="0.0344" relative="1" as="geometry">
            <mxPoint as="offset" />
          </mxGeometry>
        </mxCell>
        <mxCell id="JkcfyAt9VdftGswo8Ur1-81" value="" style="endArrow=none;html=1;rounded=0;entryX=1;entryY=0.5;entryDx=0;entryDy=0;exitX=0.5;exitY=0.5;exitDx=0;exitDy=0;exitPerimeter=0;" edge="1" parent="1" source="JkcfyAt9VdftGswo8Ur1-17" target="JkcfyAt9VdftGswo8Ur1-77">
          <mxGeometry width="50" height="50" relative="1" as="geometry">
            <mxPoint x="819" y="316" as="sourcePoint" />
            <mxPoint x="659" y="225.00294146484953" as="targetPoint" />
          </mxGeometry>
        </mxCell>
        <mxCell id="JkcfyAt9VdftGswo8Ur1-82" value="use" style="edgeLabel;html=1;align=center;verticalAlign=middle;resizable=0;points=[];" vertex="1" connectable="0" parent="JkcfyAt9VdftGswo8Ur1-81">
          <mxGeometry x="0.0344" relative="1" as="geometry">
            <mxPoint as="offset" />
          </mxGeometry>
        </mxCell>
        <mxCell id="JkcfyAt9VdftGswo8Ur1-83" value="" style="endArrow=none;html=1;rounded=0;entryX=1;entryY=0.5;entryDx=0;entryDy=0;" edge="1" parent="1" source="JkcfyAt9VdftGswo8Ur1-17" target="JkcfyAt9VdftGswo8Ur1-78">
          <mxGeometry width="50" height="50" relative="1" as="geometry">
            <mxPoint x="829" y="326" as="sourcePoint" />
            <mxPoint x="669" y="235.00294146484953" as="targetPoint" />
          </mxGeometry>
        </mxCell>
        <mxCell id="JkcfyAt9VdftGswo8Ur1-84" value="use" style="edgeLabel;html=1;align=center;verticalAlign=middle;resizable=0;points=[];" vertex="1" connectable="0" parent="JkcfyAt9VdftGswo8Ur1-83">
          <mxGeometry x="0.0344" relative="1" as="geometry">
            <mxPoint as="offset" />
          </mxGeometry>
        </mxCell>
        <mxCell id="JkcfyAt9VdftGswo8Ur1-88" style="edgeStyle=orthogonalEdgeStyle;rounded=0;orthogonalLoop=1;jettySize=auto;html=1;exitX=1;exitY=0.5;exitDx=0;exitDy=0;entryX=0;entryY=0.5;entryDx=0;entryDy=0;" edge="1" parent="1" source="JkcfyAt9VdftGswo8Ur1-85" target="JkcfyAt9VdftGswo8Ur1-76">
          <mxGeometry relative="1" as="geometry" />
        </mxCell>
        <mxCell id="JkcfyAt9VdftGswo8Ur1-85" value="회원정보&lt;br&gt;조회" style="ellipse;whiteSpace=wrap;html=1;" vertex="1" parent="1">
          <mxGeometry x="466" y="101" width="64" height="41" as="geometry" />
        </mxCell>
        <mxCell id="JkcfyAt9VdftGswo8Ur1-90" style="edgeStyle=orthogonalEdgeStyle;rounded=0;orthogonalLoop=1;jettySize=auto;html=1;exitX=1;exitY=0.5;exitDx=0;exitDy=0;entryX=0;entryY=0.5;entryDx=0;entryDy=0;" edge="1" parent="1" source="JkcfyAt9VdftGswo8Ur1-86" target="JkcfyAt9VdftGswo8Ur1-76">
          <mxGeometry relative="1" as="geometry" />
        </mxCell>
        <mxCell id="JkcfyAt9VdftGswo8Ur1-86" value="회원정보&lt;br&gt;수정" style="ellipse;whiteSpace=wrap;html=1;" vertex="1" parent="1">
          <mxGeometry x="466" y="161" width="64" height="41" as="geometry" />
        </mxCell>
        <mxCell id="JkcfyAt9VdftGswo8Ur1-91" style="edgeStyle=orthogonalEdgeStyle;rounded=0;orthogonalLoop=1;jettySize=auto;html=1;exitX=1;exitY=0.5;exitDx=0;exitDy=0;entryX=0;entryY=0.5;entryDx=0;entryDy=0;" edge="1" parent="1" source="JkcfyAt9VdftGswo8Ur1-87" target="JkcfyAt9VdftGswo8Ur1-76">
          <mxGeometry relative="1" as="geometry" />
        </mxCell>
        <mxCell id="JkcfyAt9VdftGswo8Ur1-87" value="회원정보&lt;br&gt;삭제" style="ellipse;whiteSpace=wrap;html=1;" vertex="1" parent="1">
          <mxGeometry x="466" y="225.5" width="64" height="41" as="geometry" />
        </mxCell>
        <mxCell id="JkcfyAt9VdftGswo8Ur1-98" style="edgeStyle=orthogonalEdgeStyle;rounded=0;orthogonalLoop=1;jettySize=auto;html=1;exitX=0.5;exitY=1;exitDx=0;exitDy=0;entryX=0.5;entryY=0;entryDx=0;entryDy=0;" edge="1" parent="1" source="JkcfyAt9VdftGswo8Ur1-92" target="JkcfyAt9VdftGswo8Ur1-85">
          <mxGeometry relative="1" as="geometry" />
        </mxCell>
        <mxCell id="JkcfyAt9VdftGswo8Ur1-92" value="키워드" style="ellipse;whiteSpace=wrap;html=1;" vertex="1" parent="1">
          <mxGeometry x="450" y="22" width="46" height="40" as="geometry" />
        </mxCell>
        <mxCell id="JkcfyAt9VdftGswo8Ur1-99" style="edgeStyle=orthogonalEdgeStyle;rounded=0;orthogonalLoop=1;jettySize=auto;html=1;exitX=0.5;exitY=1;exitDx=0;exitDy=0;entryX=0.5;entryY=0;entryDx=0;entryDy=0;" edge="1" parent="1" source="JkcfyAt9VdftGswo8Ur1-93" target="JkcfyAt9VdftGswo8Ur1-85">
          <mxGeometry relative="1" as="geometry">
            <Array as="points">
              <mxPoint x="555" y="82" />
              <mxPoint x="498" y="82" />
            </Array>
          </mxGeometry>
        </mxCell>
        <mxCell id="JkcfyAt9VdftGswo8Ur1-93" value="전체" style="ellipse;whiteSpace=wrap;html=1;" vertex="1" parent="1">
          <mxGeometry x="530" y="22" width="50" height="40" as="geometry" />
        </mxCell>
        <mxCell id="JkcfyAt9VdftGswo8Ur1-100" value="강의조회" style="ellipse;whiteSpace=wrap;html=1;" vertex="1" parent="1">
          <mxGeometry x="180" y="22" width="60" height="48" as="geometry" />
        </mxCell>
        <mxCell id="JkcfyAt9VdftGswo8Ur1-101" value="수강신청" style="ellipse;whiteSpace=wrap;html=1;" vertex="1" parent="1">
          <mxGeometry x="280" y="-44" width="60" height="50" as="geometry" />
        </mxCell>
        <mxCell id="JkcfyAt9VdftGswo8Ur1-103" value="결제방식" style="ellipse;whiteSpace=wrap;html=1;" vertex="1" parent="1">
          <mxGeometry x="380" y="-100" width="60" height="50" as="geometry" />
        </mxCell>
        <mxCell id="JkcfyAt9VdftGswo8Ur1-104" value="확인" style="ellipse;whiteSpace=wrap;html=1;" vertex="1" parent="1">
          <mxGeometry x="480" y="-160" width="60" height="50" as="geometry" />
        </mxCell>
        <mxCell id="JkcfyAt9VdftGswo8Ur1-107" value="결제시스템" style="rounded=0;whiteSpace=wrap;html=1;" vertex="1" parent="1">
          <mxGeometry x="790" y="-165" width="120" height="60" as="geometry" />
        </mxCell>
        <mxCell id="JkcfyAt9VdftGswo8Ur1-108" value="" style="endArrow=none;html=1;rounded=0;exitX=0;exitY=0.5;exitDx=0;exitDy=0;" edge="1" parent="1" source="JkcfyAt9VdftGswo8Ur1-107">
          <mxGeometry width="50" height="50" relative="1" as="geometry">
            <mxPoint x="631" y="-180" as="sourcePoint" />
            <mxPoint x="540" y="-134.49705853515047" as="targetPoint" />
          </mxGeometry>
        </mxCell>
        <mxCell id="JkcfyAt9VdftGswo8Ur1-109" value="use" style="edgeLabel;html=1;align=center;verticalAlign=middle;resizable=0;points=[];" vertex="1" connectable="0" parent="JkcfyAt9VdftGswo8Ur1-108">
          <mxGeometry x="0.0344" relative="1" as="geometry">
            <mxPoint as="offset" />
          </mxGeometry>
        </mxCell>
      </root>
    </mxGraphModel>
  </diagram>
</mxfile>
